<svg xmlns="http://www.w3.org/2000/svg" viewBox="0 0 100 100" width="100" height="100">
  <path d="M 50 97.682 C 23.708 97.682 2.318 76.292 2.318 50 C 2.318 23.708 23.708 2.318 50 2.318 C 76.292 2.318 97.682 23.708 97.682 50 C 97.682 76.292 76.292 97.682 50 97.682 z M 50 9.518 C 27.678 9.518 9.518 27.678 9.518 50 C 9.518 72.321 27.678 90.481 50 90.481 C 72.322 90.481 90.481 72.321 90.481 49.99999999999999 C 90.481 27.678 72.322 9.518 50 9.518 z M 82.061 34.273 C 80.539 38.373 76.592 41.294 71.963 41.294 C 66.016 41.294 61.195 36.473 61.195 30.526 C 61.195 25.897 64.117 21.951 68.216 20.429 C 66.003 19.683 63.634 19.278 61.169 19.278 C 48.996 19.278 39.128 29.146 39.128 41.319 C 39.128 53.492 48.996 63.36 61.169 63.36 C 73.342 63.36 83.21 53.493 83.21 41.319 C 83.211 38.855 82.807 36.486 82.061 34.273 z" 
        fill="#000000" 
        stroke="#000000" 
        stroke-width="0"/>
</svg>